<?xml version="1.0" encoding="UTF-8"?>
<!DOCTYPE svg PUBLIC "-//W3C//DTD SVG 1.1//EN" "http://www.w3.org/Graphics/SVG/1.1/DTD/svg11.dtd">
<!-- Creator: CorelDRAW 2018 (64-Bit) -->
<svg xmlns="http://www.w3.org/2000/svg" xml:space="preserve" width="1024px" height="1024px" version="1.1" style="shape-rendering:geometricPrecision; text-rendering:geometricPrecision; image-rendering:optimizeQuality; fill-rule:evenodd; clip-rule:evenodd"
viewBox="0 0 1024 1024"
 xmlns:xlink="http://www.w3.org/1999/xlink">
 <defs>
  <style type="text/css">
   <![CDATA[
    .str1 {stroke:#2B2A29;stroke-width:2.36;stroke-miterlimit:22.9256}
    .str0 {stroke:#2B2A29;stroke-width:2.36;stroke-miterlimit:22.9256;stroke-dasharray:2.360000 11.810000}
    .fil1 {fill:none}
    .fil0 {fill:#FEF7F1}
   ]]>
  </style>
 </defs>
 <g id="Слой_x0020_1">
  <metadata id="CorelCorpID_0Corel-Layer"/>
  <path class="fil0 str0" d="M0 0l1024 0 0 1024 -1024 0 0 -1024zm286.79 909.39l5.83 -0.52 11.46 -1.04 11.5 -0.87 11.5 -0.87 11.52 -0.91 11.52 -0.91 11.54 -0.84 11.54 -0.84 11.55 -0.73 11.56 -0.73 11.57 -0.62 11.57 -0.61 11.59 -0.48 11.58 -0.49 11.6 -0.34 11.59 -0.34 11.6 -0.18 11.6 -0.19 11.61 -0.06 11.61 -0.07 11.6 0.07 11.61 0.06 11.6 0.19 11.6 0.19 11.6 0.34 11.59 0.34 11.59 0.48 11.58 0.49 11.57 0.61 11.57 0.62 11.56 0.73 11.56 0.73 11.53 0.84 11.55 0.84 11.52 0.91 11.51 0.91 11.51 0.88 11.5 0.87 11.46 1.04 5.72 0.52 5.68 0.77 5.29 1.2 5.83 1.63 11.06 3.09 11.45 1.1 11.44 1.1 11.34 1.49 11.34 1.47 11.28 1.72 11.27 1.72 11.18 1.92 11.19 1.92 11.1 2.15 11.08 2.16 10.97 2.43 10.97 2.43 10.81 2.77 10.8 2.76 0.13 -0.26 0.12 -0.26 0.19 -0.26 0.2 -0.27 0.23 -0.27 0.25 -0.29 0.25 -0.23 0.26 -0.25 0.22 -0.1 0.22 -0.12 0.25 -0.12 0.24 -0.11 0.32 -0.25 0.31 -0.24 0.35 -0.31 0.34 -0.32 0.35 -0.29 0.34 -0.31 0.33 -0.31 0.34 -0.31 0.32 -0.3 0.33 -0.32 0.3 -0.33 0.31 -0.32 0.28 -0.35 0.28 -0.35 0.26 -0.37 0.26 -0.37 0.24 -0.39 0.24 -0.41 0.2 -0.43 0.21 -0.44 0.18 -0.47 0.18 -0.47 0.21 -0.78 0.21 -0.78 0.31 -1.34 0.31 -1.35 6.43 -29.69 6.43 -29.71 1.69 -7.42 1.67 -7.43 20.7 -109.24 20.71 -109.24 15.02 -85.61 15.03 -85.6 0.19 -1.53 0.2 -1.53 -14.07 -0.51 -14.01 -1.06 -13.91 -1.85 -13.89 -2.23 -13.9 -2.24 -13.91 -2.21 -13.93 -2.18 -13.95 -2.16 -13.96 -2.09 -13.98 -2.03 -14.01 -1.99 -14.02 -1.91 -14.04 -1.84 -14.07 -1.78 -14.06 -1.69 -14.1 -1.64 -14.11 -1.56 -14.12 -1.48 -14.14 -1.4 -14.15 -1.34 -14.16 -1.25 -14.18 -1.19 -14.17 -1.1 -14.19 -1.03 -14.2 -0.97 -14.19 -0.88 -14.21 -0.81 -14.2 -0.75 -14.22 -0.67 -14.21 -0.62 -14.21 -0.57 -14.21 -0.43 -14.2 -0.18 -14.19 -0.03 -14.15 -0.02 -14.13 -0.01 -14.12 0.01 -14.16 0.02 -14.18 0.03 -14.21 0.17 -14.2 0.43 -14.22 0.57 -14.2 0.63 -14.21 0.66 -14.21 0.75 -14.2 0.81 -14.2 0.88 -14.2 0.96 -14.18 1.04 -14.19 1.1 -14.17 1.18 -14.17 1.25 -14.14 1.34 -14.14 1.4 -14.12 1.48 -14.11 1.56 -14.09 1.63 -14.08 1.7 -14.06 1.78 -14.04 1.84 -14.03 1.91 -14 1.97 -13.98 2.04 -13.97 2.09 -13.95 2.15 -13.92 2.19 -13.91 2.21 -13.9 2.24 -13.89 2.22 -13.92 1.85 -14 1.07 -14.07 0.5 0.19 1.53 0.19 1.54 15.02 85.6 15.04 85.61 20.7 109.24 20.69 109.24 1.68 7.43 1.68 7.42 6.43 29.7 6.43 29.7 0.31 1.35 0.31 1.34 0.21 0.77 0.22 0.79 0.18 0.46 0.17 0.48 0.21 0.43 0.21 0.44 0.23 0.39 0.24 0.41 0.26 0.37 0.26 0.37 0.28 0.35 0.28 0.34 0.31 0.33 0.3 0.33 0.32 0.3 0.33 0.32 0.33 0.31 0.34 0.31 0.35 0.29 0.34 0.31 0.35 0.31 0.34 0.32 0.32 0.24 0.3 0.25 0.25 0.11 0.24 0.12 0.23 0.12 0.23 0.1 0.24 0.24 0.26 0.24 0.24 0.28 0.24 0.28 0.2 0.27 0.19 0.26 0.13 0.26 0.12 0.25 10.8 -2.77 10.8 -2.77 10.97 -2.42 10.97 -2.42 11.1 -2.16 11.09 -2.15 11.19 -1.92 11.19 -1.92 11.27 -1.72 11.26 -1.71 11.35 -1.48 11.35 -1.49 11.43 -1.09 11.44 -1.11 11.07 -3.08 5.86 -1.64 5.25 -1.2 5.59 -0.76z"/>
 </g>
 <g id="Слой_x0020_2" visibility="hidden">
  <metadata id="CorelCorpID_1Corel-Layer"/>
  <polygon class="fil1 str1" points="286.79,909.39 292.62,908.87 304.08,907.83 315.58,906.96 327.08,906.09 338.6,905.18 350.12,904.27 361.66,903.43 373.2,902.59 384.75,901.86 396.31,901.13 407.88,900.51 419.45,899.9 431.04,899.42 442.62,898.93 454.22,898.59 465.81,898.25 477.41,898.07 489.01,897.88 500.62,897.82 512.23,897.75 523.83,897.82 535.44,897.88 547.04,898.07 558.64,898.26 570.24,898.6 581.83,898.94 593.42,899.42 605,899.91 616.57,900.52 628.14,901.14 639.7,901.87 651.26,902.6 662.79,903.44 674.34,904.28 685.86,905.19 697.37,906.1 708.88,906.98 720.38,907.85 731.84,908.89 737.56,909.41 743.24,910.18 748.53,911.38 754.36,913.01 765.42,916.1 776.87,917.2 788.31,918.3 799.65,919.79 810.99,921.26 822.27,922.98 833.54,924.7 844.72,926.62 855.91,928.54 867.01,930.69 878.09,932.85 889.06,935.28 900.03,937.71 910.84,940.48 921.64,943.24 921.77,942.98 921.89,942.72 922.08,942.46 922.28,942.19 922.51,941.92 922.76,941.63 923.01,941.4 923.27,941.15 923.49,941.05 923.71,940.93 923.96,940.81 924.2,940.7 924.52,940.45 924.83,940.21 925.18,939.9 925.52,939.58 925.87,939.29 926.21,938.98 926.54,938.67 926.88,938.36 927.2,938.06 927.53,937.74 927.83,937.41 928.14,937.09 928.42,936.74 928.7,936.39 928.96,936.02 929.22,935.65 929.46,935.26 929.7,934.85 929.9,934.42 930.11,933.98 930.29,933.51 930.47,933.04 930.68,932.26 930.89,931.48 931.2,930.14 931.51,928.79 937.94,899.1 944.37,869.39 946.06,861.97 947.73,854.54 968.43,745.3 989.14,636.06 1004.16,550.45 1019.19,464.85 1019.38,463.32 1019.58,461.79 1005.51,461.28 991.5,460.22 977.59,458.37 963.7,456.14 949.8,453.9 935.89,451.69 921.96,449.51 908.01,447.35 894.05,445.26 880.07,443.23 866.06,441.24 852.04,439.33 838,437.49 823.93,435.71 809.87,434.02 795.77,432.38 781.66,430.82 767.54,429.34 753.4,427.94 739.25,426.6 725.09,425.35 710.91,424.16 696.74,423.06 682.55,422.03 668.35,421.06 654.16,420.18 639.95,419.37 625.75,418.62 611.53,417.95 597.32,417.33 583.11,416.76 568.9,416.33 554.7,416.15 540.51,416.12 526.36,416.1 512.23,416.09 498.11,416.1 483.95,416.12 469.77,416.15 455.56,416.32 441.36,416.75 427.14,417.32 412.94,417.95 398.73,418.61 384.52,419.36 370.32,420.17 356.12,421.05 341.92,422.01 327.74,423.05 313.55,424.15 299.38,425.33 285.21,426.58 271.07,427.92 256.93,429.32 242.81,430.8 228.7,432.36 214.61,433.99 200.53,435.69 186.47,437.47 172.43,439.31 158.4,441.22 144.4,443.19 130.42,445.23 116.45,447.32 102.5,449.47 88.58,451.66 74.67,453.87 60.77,456.11 46.88,458.33 32.96,460.18 18.96,461.25 4.89,461.75 5.08,463.28 5.27,464.82 20.29,550.42 35.33,636.03 56.03,745.27 76.72,854.51 78.4,861.94 80.08,869.36 86.51,899.06 92.94,928.76 93.25,930.11 93.56,931.45 93.77,932.22 93.99,933.01 94.17,933.47 94.34,933.95 94.55,934.38 94.76,934.82 94.99,935.21 95.23,935.62 95.49,935.99 95.75,936.36 96.03,936.71 96.31,937.05 96.62,937.38 96.92,937.71 97.24,938.01 97.57,938.33 97.9,938.64 98.24,938.95 98.59,939.24 98.93,939.55 99.28,939.86 99.62,940.18 99.94,940.42 100.24,940.67 100.49,940.78 100.73,940.9 100.96,941.02 101.19,941.12 101.43,941.36 101.69,941.6 101.93,941.88 102.17,942.16 102.37,942.43 102.56,942.69 102.69,942.95 102.81,943.2 113.61,940.43 124.41,937.66 135.38,935.24 146.35,932.82 157.45,930.66 168.54,928.51 179.73,926.59 190.92,924.67 202.19,922.95 213.45,921.24 224.8,919.76 236.15,918.27 247.58,917.18 259.02,916.07 270.09,912.99 275.95,911.35 281.2,910.15 "/>
 </g>
</svg>
