<?xml version="1.0" encoding="utf-8"?>
<!-- Generator: Adobe Illustrator 24.1.1, SVG Export Plug-In . SVG Version: 6.00 Build 0)  -->
<svg version="1.1" id="Слой_1" xmlns="http://www.w3.org/2000/svg" xmlns:xlink="http://www.w3.org/1999/xlink" x="0px" y="0px"
	 viewBox="0 0 1024 1024" style="enable-background:new 0 0 1024 1024;" xml:space="preserve">
<style type="text/css">
	.st0{fill:#FFFFFF;}
	.st1{fill:none;stroke:#000000;stroke-width:10;stroke-linejoin:round;stroke-dasharray:25;}
</style>
<path class="st0" d="M0,0v1024h1024V0H0z M512,958.07c-206.17-0.02-375.12-48.36-478.57-85.65
	c46.24-118.99,92.47-237.98,138.7-356.97c74.22,24.39,184.43,51.41,319.83,52.29c142.15,0.93,257.46-27.32,333.47-52.29
	c48.26,118.99,101.05,239.49,149.3,358.48C862.57,920.17,682.95,958.07,512,958.07z"/>
<path class="st1" d="M172.13,515.45c74.22,24.39,184.44,51.41,319.83,52.29c142.15,0.93,257.46-27.32,333.47-52.29
	c48.25,118.99,101.05,239.49,149.31,358.48C862.57,920.17,682.95,958.08,512,958.06c-206.17-0.01-375.12-48.36-478.57-85.64
	C79.66,753.43,125.89,634.44,172.13,515.45z"/>
</svg>